<?xml version="1.0" encoding="utf-8"?>
<!-- Generator: Adobe Illustrator 22.0.1, SVG Export Plug-In . SVG Version: 6.00 Build 0)  -->
<svg version="1.1" id="Layer_1" xmlns="http://www.w3.org/2000/svg" xmlns:xlink="http://www.w3.org/1999/xlink" x="0px" y="0px"
	 viewBox="0 0 1500 1500" style="enable-background:new 0 0 1500 1500;" xml:space="preserve">
<style type="text/css">
	.st0{fill-rule:evenodd;clip-rule:evenodd;fill:url(#XMLID_2_);}
	.st1{fill-rule:evenodd;clip-rule:evenodd;fill:#FFFFFF;}
	.st2{fill:#FFFFFF;}
</style>
<g id="Ellipse_1_copy_2_14_">
	<g id="XMLID_337_">
		<linearGradient id="XMLID_2_" gradientUnits="userSpaceOnUse" x1="225.7104" y1="166.1257" x2="1279.5565" y2="1341.1256">
			<stop  offset="0" style="stop-color:#FF00FF"/>
			<stop  offset="0.1901" style="stop-color:#E707EE"/>
			<stop  offset="0.5917" style="stop-color:#AA19C2"/>
			<stop  offset="0.9995" style="stop-color:#662D91"/>
		</linearGradient>
		<circle id="XMLID_338_" class="st0" cx="749.7" cy="750.3" r="734.2"/>
	</g>
</g>
<path id="XMLID_334_" class="st1" d="M893.6,75.5C520.9-3.9,154.3,233.8,74.9,606.4s158.2,739.2,530.9,818.7
	s739.2-158.2,818.7-530.9S1266.2,155,893.6,75.5z M629,1316.4c-312.6-66.7-512-374.1-445.3-686.7s374.1-512,686.7-445.3
	s512,374.1,445.3,686.7C1249,1183.6,941.6,1383,629,1316.4z"/>
<path class="st2" d="M1022.8,790.6c66-11.7,120.9-60.1,138.5-140.8c22.3-102.6-33.5-206.8-201.6-249.5l28.5-131
	c-32.8-16.3-67.8-29.3-104.5-38.8l-31.8,146L780,360.9l31.3-143.8c-38-4.5-75.8-4.8-112.7-1.2l-26.5,121.6L565,314.1l-164.6,756.3
	l107.2,23.3l-26.5,121.6c32.1,18.5,66.6,34,103,45.7l31.3-143.9l71.9,15.6l-31.8,146.1c37.4,6.7,74.6,9.3,111.2,8.2l28.5-131
	c179.1,33.1,288-47,314.2-167.4C1130.7,890.8,1075.1,823.1,1022.8,790.6z M747.6,510.2l122,26.6c23.3,5.1,42,13.8,54.8,25.9
	c16.4,15.5,23,36.7,17.3,63c-5.4,24.8-19,44.1-42.4,52.6c-15.3,5.5-34.8,6.4-59,1.2l-123.7-26.9L747.6,510.2z M830.6,993.6
	c-18.2,5.4-41.2,5.4-69.4-0.7l-113.3-24.7l36.3-166.9l117.4,25.5c26.3,5.7,45.9,14.9,59.5,26.6c22.9,19.6,29,46.4,22.6,76.2
	C876.4,962.9,859.4,985.1,830.6,993.6z"/>
<path class="st1" d="M1022.8,790.6c66-11.7,120.9-60.1,138.5-140.8c22.3-102.6-33.5-206.8-201.6-249.5l28.5-131
	c-32.8-16.3-67.8-29.3-104.5-38.8l-31.8,146L780,360.9l31.3-143.8c-38-4.5-75.8-4.8-112.7-1.2l-26.5,121.6L565,314.1l-164.6,756.3
	l107.2,23.3l-26.5,121.6c32.1,18.5,66.6,34,103,45.7l31.3-143.9l71.9,15.6l-31.8,146.1c37.4,6.7,74.6,9.3,111.2,8.2l28.5-131
	c179.1,33.1,288-47,314.2-167.4C1130.7,890.8,1075.1,823.1,1022.8,790.6z M747.6,510.2l122,26.6c23.3,5.1,42,13.8,54.8,25.9
	c16.4,15.5,23,36.7,17.3,63c-5.4,24.8-19,44.1-42.4,52.6c-15.3,5.5-34.8,6.4-59,1.2l-123.7-26.9L747.6,510.2z M830.6,993.6
	c-18.2,5.4-41.2,5.4-69.4-0.7l-113.3-24.7l36.3-166.9l117.4,25.5c26.3,5.7,45.9,14.9,59.5,26.6c22.9,19.6,29,46.4,22.6,76.2
	C876.4,962.9,859.4,985.1,830.6,993.6z"/>
<g id="XMLID_308_">
	<g id="XMLID_328_">
		<path class="st2" d="M419.7,791.9c-9.2,10-20.3,16.7-33.3,19.9c-13,3.2-26.8,3.2-41.6,0c-14.5-3.2-27-8.9-37.4-17.2
			c-10.4-8.3-17.8-18.9-22.1-31.9c-4.4-13-4.8-27.7-1.2-44.2c3.5-16.2,10-29.3,19.4-39.4c9.4-10,20.5-16.7,33.5-19.9
			c13-3.3,26.7-3.3,41-0.2c14.8,3.2,27.4,9,37.8,17.4c10.4,8.4,17.8,19,22,31.9c4.2,12.9,4.6,27.5,1,43.9
			C435.4,768.6,429,781.8,419.7,791.9z M402.2,713.1c-7.4-9-18.2-15.1-32.6-18.2c-9-2-17.4-2.1-25.2-0.5c-7.7,1.6-14.3,5-19.7,10.2
			c-5.4,5.2-9,12-10.8,20.4c-2.8,12.9-0.6,23.9,6.6,32.8c7.2,8.9,17.9,14.9,32.1,18c14.4,3.1,26.7,2.2,36.9-2.9
			c10.2-5,16.7-14.1,19.6-27.2C411.9,732.9,409.6,722.1,402.2,713.1z"/>
	</g>
	<g id="XMLID_316_">
		<path class="st2" d="M412.1,600.9l-3.6,16.5l53.8,11.7l-7.7,35.3L305.8,632l13.1-60.2c8.2-37.8,28.2-53.2,60-46.3
			c22.6,4.9,35,18,37.1,39.1l65.2-23l-8.5,39.2L412.1,600.9z M378.6,610.9l5.4-24.9c3-14-1.3-22.3-12.9-24.8
			c-6.1-1.3-11-0.6-14.6,2.2c-3.6,2.8-6.2,7.8-7.8,15l-5.4,24.9L378.6,610.9z"/>
	</g>
	<g id="XMLID_310_">
		<path class="st2" d="M476.5,427.7l28.3,6.1l-21.6,99.3l-148.7-32.4l21.4-98.3l28.3,6.1l-13.7,63l31.6,6.9l11.6-53.2l28.3,6.1
			l-11.6,53.2l32.4,7L476.5,427.7z"/>
	</g>
	<path id="XMLID_309_" class="st2" d="M390.9,822.3c-2.4,0.6-4.8,1.1-7.2,1.5c1.1,5,1.9,9.7,2.3,14.2c0.6,6.4,0.2,12.8-1.2,19.1
		c-2.9,13.3-9.5,22.8-19.9,28.5c-10.3,5.6-22.7,6.9-37.1,3.7c-9-2-16.7-5.6-23.1-10.8c-6.4-5.2-10.9-11.6-13.6-19.1
		c-2.7-7.5-3.1-15.5-1.2-24c2.4-10.9,6.8-20.9,13.2-30c-1.4-1-2.8-2-4.1-3.1c-6.2-4.9-11.5-10.6-15.8-17c-5.2,5.4-8.2,10-8.2,10
		c-4,5.7-7.1,11.2-9.4,16.3c-2.3,5.2-4.2,11.2-5.7,18.2c-3.7,16.9-3.4,31.9,0.9,45.2c4.2,13.3,11.6,24.1,22,32.5
		c10.4,8.4,23,14.2,37.6,17.4c24.1,5.2,44.4,2.8,61-7.2c16.6-10,27.7-28.1,33.4-54.3c1.7-7.6,2.4-15.8,2.2-24.6
		c-0.2-8.8-1.4-17.4-3.7-25.9l-0.2,0C406.3,817.2,398.9,820.3,390.9,822.3z"/>
</g>
<path id="XMLID_537_" class="st1" d="M868.2,194.5c-306.9-65.4-608.8,130.3-674.3,437.3s130.3,608.8,437.3,674.3
	s608.8-130.3,674.3-437.3C1370.9,561.9,1175.1,260,868.2,194.5z M635.4,1286.4c-296-63.1-484.9-354.3-421.7-650.3
	S567.9,151.2,864,214.3s484.9,354.3,421.7,650.3C1222.6,1160.7,931.4,1349.5,635.4,1286.4z"/>
<path id="XMLID_540_" class="st1" d="M899.8,46.2c-388.9-82.9-771.3,165.1-854.2,554s165.1,771.3,554,854.2s771.3-165.1,854.2-554
	S1288.7,129.1,899.8,46.2z M603.7,1434.9C225.6,1354.3-15.5,982.5,65.1,604.4S517.6-14.9,895.6,65.7s619.3,452.5,538.6,830.6
	S981.8,1515.6,603.7,1434.9z"/>
</svg>
